<svg width="76" height="12" viewBox="0 0 76 12" fill="none" xmlns="http://www.w3.org/2000/svg">
<path d="M6 0L8.03951 3.37501L12 4.20163L9.3 7.11411L9.7082 11L6 9.42501L2.2918 11L2.7 7.11411L0 4.20163L3.96049 3.37501L6 0Z" fill="#FEC84B"/>
<path d="M2.2918 11L6 9.42501V0L3.96049 3.37501L0 4.20163L2.7 7.11411L2.2918 11Z" fill="#FEC84B"/>
<path d="M22 0L24.0395 3.37501L28 4.20163L25.3 7.11411L25.7082 11L22 9.42501L18.2918 11L18.7 7.11411L16 4.20163L19.9605 3.37501L22 0Z" fill="#FEC84B"/>
<path d="M18.2918 11L22 9.42501V0L19.9605 3.37501L16 4.20163L18.7 7.11411L18.2918 11Z" fill="#FEC84B"/>
<path d="M38 0L40.0395 3.37501L44 4.20163L41.3 7.11411L41.7082 11L38 9.42501L34.2918 11L34.7 7.11411L32 4.20163L35.9605 3.37501L38 0Z" fill="#FEC84B"/>
<path d="M34.2918 11L38 9.42501V0L35.9605 3.37501L32 4.20163L34.7 7.11411L34.2918 11Z" fill="#FEC84B"/>
<path d="M54 0L56.0395 3.37501L60 4.20163L57.3 7.11411L57.7082 11L54 9.42501L50.2918 11L50.7 7.11411L48 4.20163L51.9605 3.37501L54 0Z" fill="#FEC84B"/>
<path d="M50.2918 11L54 9.42501V0L51.9605 3.37501L48 4.20163L50.7 7.11411L50.2918 11Z" fill="#FEC84B"/>
<path d="M70 0L72.0395 3.37501L76 4.20163L73.3 7.11411L73.7082 11L70 9.42501L66.2918 11L66.7 7.11411L64 4.20163L67.9605 3.37501L70 0Z" fill="#EAECF0"/>
</svg>
